<svg width="30" height="30" viewBox="0 0 30 30" fill="none" xmlns="http://www.w3.org/2000/svg">
<g id="github-icon">
<path fill-rule="evenodd" clip-rule="evenodd" d="M15 0C6.7125 0 0 6.7125 0 15C0 21.6375 4.29375 27.2437 10.2563 29.2313C11.0063 29.3625 11.2875 28.9125 11.2875 28.5188C11.2875 28.1625 11.2688 26.9813 11.2688 25.725C7.5 26.4188 6.525 24.8062 6.225 23.9625C6.05625 23.5312 5.325 22.2 4.6875 21.8438C4.1625 21.5625 3.4125 20.8687 4.66875 20.85C5.85 20.8313 6.69375 21.9375 6.975 22.3875C8.325 24.6562 10.4812 24.0187 11.3438 23.625C11.475 22.65 11.8688 21.9937 12.3 21.6187C8.9625 21.2437 5.475 19.95 5.475 14.2125C5.475 12.5813 6.05625 11.2313 7.0125 10.1813C6.8625 9.80625 6.3375 8.26875 7.1625 6.20625C7.1625 6.20625 8.41875 5.8125 11.2875 7.74375C12.4875 7.40625 13.7625 7.2375 15.0375 7.2375C16.3125 7.2375 17.5875 7.40625 18.7875 7.74375C21.6562 5.79375 22.9125 6.20625 22.9125 6.20625C23.7375 8.26875 23.2125 9.80625 23.0625 10.1813C24.0188 11.2313 24.6 12.5625 24.6 14.2125C24.6 19.9688 21.0938 21.2437 17.7563 21.6187C18.3 22.0875 18.7688 22.9875 18.7688 24.3937C18.7688 26.4 18.75 28.0125 18.75 28.5188C18.75 28.9125 19.0312 29.3813 19.7812 29.2313C22.759 28.2259 25.3465 26.3121 27.1796 23.7592C29.0127 21.2063 29.9991 18.1429 30 15C30 6.7125 23.2875 0 15 0Z" fill=""/>
</g>
<g id="htm-icon">
<path d="M22.1323 102.004L13.7061 7.5H106.294L97.856 101.989L59.9436 112.5L22.1323 102.004Z" fill="#E44F26"/>
<path d="M60 104.468L90.6375 95.9738L97.845 15.2288H60V104.468Z" fill="#F1662A"/>
<path d="M60 50.2762H44.6625L43.605 38.4075H60V26.8162H30.9375L31.215 29.9287L34.0613 61.8675H60V50.2762ZM60 80.3775L59.9475 80.3925L47.04 76.9087L46.215 67.665H34.5787L36.2025 85.86L59.9475 92.4525L60 92.4375V80.3775Z" fill="#EBEBEB"/>
<path d="M59.959 50.2762V61.8675H74.2315L72.889 76.9012L59.959 80.3887V92.4487L83.7227 85.86L83.8952 83.9025L86.6177 53.3887L86.9027 50.2762H59.959ZM59.959 26.8162V38.4075H87.9565L88.189 35.805L88.7177 29.9287L88.9952 26.8162H59.959Z" fill="white"/>
</g>
<g id="js-icon">
<path d="M7.5 7.5H112.5V112.5H7.5V7.5Z" fill="#F5DE19"/>
<path d="M78.0338 89.5312C78.9284 91.3485 80.3183 92.8759 82.0434 93.9375C83.7684 94.9991 85.7584 95.5515 87.7838 95.5313C91.8713 95.5313 94.485 93.4875 94.485 90.6562C94.485 87.2812 91.8 86.0738 87.3 84.105L84.8325 83.0475C77.7075 80.0138 72.9825 76.215 72.9825 68.1825C72.9825 60.7838 78.6075 55.1475 87.4313 55.1475C90.2877 54.9412 93.1416 55.5805 95.637 56.9856C98.1324 58.3907 100.159 60.4994 101.464 63.0488L93.75 67.98C93.2476 66.716 92.3728 65.6345 91.2416 64.879C90.1105 64.1236 88.7764 63.7298 87.4163 63.75C86.8229 63.6906 86.2236 63.7555 85.6567 63.9404C85.0897 64.1254 84.5675 64.4265 84.1234 64.8244C83.6792 65.2224 83.3228 65.7085 83.0769 66.2518C82.831 66.7951 82.7009 67.3837 82.695 67.98C82.695 70.9388 84.5288 72.1388 88.7625 73.98L91.23 75.0375C99.615 78.6338 104.355 82.2975 104.355 90.5363C104.355 99.42 97.3763 104.287 88.005 104.287C84.3537 104.52 80.713 103.691 77.5223 101.901C74.3317 100.11 71.7274 97.4342 70.0238 94.1963L78.0338 89.5312ZM43.1775 90.3863C44.7263 93.135 46.1363 95.46 49.5263 95.46C52.7663 95.46 54.8138 94.1925 54.8138 89.2612V55.71H64.68V89.3925C64.68 99.6075 58.68 104.257 49.9463 104.257C46.8591 104.426 43.7931 103.657 41.1513 102.051C38.5096 100.444 36.4157 98.0761 35.145 95.2575L43.1775 90.3863Z" fill="black"/>
</g>
<g id="tailwind">
<path d="M36.8438 56.0844C40.6646 40.801 50.2167 33.1594 65.5 33.1594C88.425 33.1594 91.2906 50.3531 102.753 53.2187C110.395 55.1292 117.081 52.2635 122.812 44.6219C118.992 59.9052 109.44 67.5469 94.1562 67.5469C71.2313 67.5469 68.3656 50.3531 56.9031 47.4875C49.2615 45.5771 42.575 48.4427 36.8438 56.0844ZM8.1875 90.4719C12.0083 75.1885 21.5604 67.5469 36.8438 67.5469C59.7687 67.5469 62.6344 84.7406 74.0969 87.6062C81.7385 89.5167 88.425 86.651 94.1562 79.0094C90.3354 94.2927 80.7833 101.934 65.5 101.934C42.575 101.934 39.7094 84.7406 28.2469 81.875C20.6052 79.9646 13.9187 82.8302 8.1875 90.4719Z" fill="#44A8B3"/>
</g>
<g id="twitter">
<path d="M15.875 0.875C7.59152 0.875 0.875 7.59152 0.875 15.875C0.875 24.1585 7.59152 30.875 15.875 30.875C24.1585 30.875 30.875 24.1585 30.875 15.875C30.875 7.59152 24.1585 0.875 15.875 0.875ZM23.0837 12.1819C23.0937 12.3393 23.0937 12.5033 23.0937 12.6641C23.0937 17.5792 19.3504 23.2411 12.51 23.2411C10.4007 23.2411 8.44531 22.6283 6.79799 21.5737C7.09933 21.6071 7.38728 21.6205 7.69531 21.6205C9.43638 21.6205 11.0368 21.0312 12.3125 20.0335C10.6786 20 9.3058 18.9286 8.83705 17.4554C9.4096 17.5391 9.92522 17.5391 10.5145 17.3884C9.67319 17.2175 8.91699 16.7605 8.37438 16.0953C7.83178 15.43 7.53623 14.5973 7.53795 13.7388V13.692C8.03013 13.9699 8.60938 14.1406 9.2154 14.1641C8.70595 13.8245 8.28814 13.3645 7.99903 12.8249C7.70993 12.2852 7.55845 11.6825 7.55804 11.0703C7.55804 10.3772 7.73884 9.74442 8.06362 9.19531C8.99744 10.3449 10.1627 11.2851 11.4837 11.9548C12.8047 12.6245 14.2518 13.0088 15.731 13.0826C15.2054 10.5547 17.0938 8.50893 19.3638 8.50893C20.4353 8.50893 21.3996 8.95759 22.0792 9.6808C22.9196 9.52344 23.7232 9.2087 24.4397 8.78683C24.1618 9.64732 23.5792 10.3739 22.8058 10.8326C23.5558 10.7522 24.279 10.5446 24.9487 10.2533C24.4431 10.9967 23.8103 11.6562 23.0837 12.1819Z" fill=""/>
</g>
<g id="vscode">
<path d="M101.535 17.605L81.3541 7.88899C80.2144 7.33948 78.932 7.15814 77.6847 7.37011C76.4373 7.58208 75.2868 8.17686 74.3926 9.07199L8.3301 69.3C7.52857 70.0273 7.04878 71.0432 6.99627 72.1243C6.94376 73.2053 7.32283 74.2629 8.0501 75.0645C8.1376 75.159 8.2251 75.25 8.3196 75.334L13.7131 80.234C14.4179 80.8754 15.325 81.2497 16.2771 81.2919C17.2291 81.3341 18.1658 81.0416 18.9246 80.465L98.4971 20.125C99.0981 19.6689 99.8145 19.3897 100.566 19.3186C101.317 19.2476 102.073 19.3877 102.749 19.7231C103.425 20.0585 103.993 20.5758 104.391 21.217C104.789 21.8581 105 22.5975 105 23.352V23.1175C105 21.9656 104.675 20.8372 104.062 19.862C103.449 18.8868 102.573 18.1045 101.535 17.605Z" fill="#0065A9"/>
<path d="M101.535 94.395L81.3541 104.115C80.2141 104.662 78.9321 104.843 77.6851 104.631C76.4381 104.419 75.2876 103.825 74.3926 102.932L8.3301 42.7C7.52857 41.9727 7.04878 40.9568 6.99627 39.8758C6.94376 38.7947 7.32283 37.7371 8.0501 36.9355C8.1376 36.841 8.2251 36.75 8.3196 36.666L13.7131 31.766C14.4186 31.1219 15.3278 30.7459 16.2822 30.7037C17.2366 30.6615 18.1755 30.9557 18.9351 31.535L98.4971 91.875C99.0981 92.3311 99.8145 92.6104 100.566 92.6814C101.317 92.7524 102.073 92.6123 102.749 92.2769C103.425 91.9415 103.993 91.4242 104.391 90.783C104.789 90.1419 105 89.4025 105 88.648V88.9C104.996 90.0488 104.669 91.1733 104.057 92.1451C103.444 93.1168 102.57 93.8965 101.535 94.395Z" fill="#007ACC"/>
<path d="M81.3539 104.114C80.2139 104.662 78.9319 104.843 77.6849 104.631C76.4379 104.419 75.2874 103.825 74.3924 102.931C74.895 103.428 75.5329 103.764 76.226 103.899C76.9192 104.034 77.6368 103.962 78.2889 103.691C78.941 103.42 79.4987 102.963 79.892 102.376C80.2853 101.79 80.4968 101.1 80.4999 100.394V11.606C80.5005 10.8965 80.2905 10.2028 79.8965 9.61274C79.5025 9.02271 78.9423 8.56288 78.2867 8.29152C77.6312 8.02016 76.9098 7.94946 76.2141 8.0884C75.5183 8.22734 74.8795 8.56965 74.3784 9.07197C75.2728 8.17717 76.423 7.58235 77.6702 7.3698C78.9173 7.15724 80.1997 7.33744 81.3399 7.88547L101.517 17.5875C102.559 18.0845 103.438 18.8657 104.054 19.8411C104.67 20.8165 104.998 21.9463 105 23.1V88.9C105 90.0528 104.675 91.1822 104.061 92.1581C103.447 93.134 102.571 93.9167 101.531 94.416L81.3539 104.114Z" fill="#1F9CF0"/>
</g>
<g id="sass-icon">
<g clip-path="url(#clip0_2_5689)">
<path d="M100.673 50.0766C96.603 50.0975 93.0653 51.0694 90.1035 52.5063C89.0162 50.3721 87.9295 48.4708 87.738 47.076C87.5246 45.4493 87.2691 44.4561 87.5246 42.5122C87.7805 40.5683 88.9312 37.8001 88.9098 37.589C88.8887 37.3778 88.6538 36.3846 86.3098 36.3637C83.9658 36.3424 81.9413 36.8073 81.7068 37.42C81.4724 38.0326 81.025 39.4273 80.7266 40.8637C80.3216 42.9771 76.0386 50.5198 73.5881 54.471C72.7993 52.9291 72.1174 51.5765 71.968 50.499C71.755 48.8722 71.4991 47.879 71.755 45.9351C72.0109 43.9912 73.1617 41.2235 73.1402 41.0119C73.1187 40.8007 72.8843 39.8075 70.5403 39.7866C68.1958 39.7653 66.1713 40.2302 65.9373 40.8429C65.7029 41.4559 65.4469 42.8923 64.957 44.2871C64.4667 45.6818 58.7769 58.275 57.2852 61.5285C56.6824 62.8453 56.0501 64.1487 55.3886 65.4376C55.3886 65.4376 55.3672 65.501 55.3032 65.6066C55.0954 66.0107 54.8824 66.4122 54.6643 66.811V66.8318C54.3444 67.4028 54.0035 67.9307 53.833 67.9307C53.705 67.9307 53.4706 66.4095 53.8755 64.3387C54.7278 59.9652 56.7524 53.1615 56.7313 52.9291C56.7313 52.8022 57.1148 51.6191 55.4101 51.006C53.7475 50.3934 53.1511 51.4075 53.0017 51.4075C52.8527 51.4075 52.7458 51.7668 52.7458 51.7668C52.7458 51.7668 54.6003 44.118 49.2085 44.118C45.8417 44.118 41.1958 47.7734 38.8943 51.0694C36.278 52.4811 33.6639 53.8968 31.052 55.3166C29.7953 56.0139 28.4951 56.7113 27.2803 57.3661C27.1949 57.2818 27.1099 57.1758 27.0244 57.0915C20.5034 50.1822 8.442 45.3012 8.95339 36.0257C9.14534 32.6449 10.3171 23.7705 32.1178 12.9947C50.0608 4.22583 64.3392 6.65549 66.8111 12.0436C70.3484 19.7349 59.1608 34.0183 40.6204 36.0887C33.5455 36.8708 29.8373 34.1661 28.9 33.152C27.9197 32.0953 27.7703 32.0318 27.4079 32.2435C26.8115 32.5606 27.1949 33.5113 27.4079 34.0605C27.9622 35.4969 30.2422 38.0326 34.0994 39.2796C37.5091 40.378 45.7988 40.991 55.8361 37.1454C67.0666 32.8348 75.8466 20.8546 73.2682 10.8183C70.6893 0.633908 53.641 -2.72556 37.5091 2.95799C27.9197 6.33921 17.52 11.6634 10.0402 18.594C1.15363 26.834 -0.253039 33.997 0.322334 36.9976C2.38984 47.6465 17.2006 54.5771 23.1248 59.7114C22.8263 59.8804 22.5489 60.0286 22.3149 60.1555C19.3526 61.6132 8.05811 67.4658 5.24523 73.6568C2.04891 80.6716 5.75708 85.7009 8.20756 86.3765C15.8154 88.4686 23.6362 84.7076 27.8342 78.4953C32.0323 72.2834 31.5209 64.2119 29.5818 60.5144C29.5604 60.4722 29.5393 60.4296 29.4964 60.3875C30.2637 59.9439 31.052 59.479 31.8194 59.0354C33.2296 58.2088 34.6578 57.4126 36.1029 56.6474C35.3781 58.6126 34.8452 60.958 34.5897 64.3387C34.2698 68.3113 35.9105 73.4665 38.063 75.4947C39.0223 76.3828 40.1515 76.4037 40.8763 76.4037C43.3908 76.4037 44.5205 74.3329 45.7778 71.8819C47.3119 68.8818 48.6971 65.3954 48.6971 65.3954C48.6971 65.3954 46.971 74.8191 51.6595 74.8191C53.3641 74.8191 55.0902 72.6214 55.8575 71.5017V71.5226C55.8575 71.5226 55.9 71.4592 55.9855 71.3114C56.156 71.0368 56.2624 70.8674 56.2624 70.8674V70.8257C56.9443 69.6421 58.4789 66.9587 60.7589 62.5004C63.6998 56.7534 66.5342 49.5696 66.5342 49.5696C66.5342 49.5696 66.7901 51.3232 67.6634 54.239C68.1753 55.9505 69.2401 57.831 70.0929 59.648C69.411 60.5991 68.9846 61.127 68.9846 61.127L69.0061 61.1483C68.4518 61.8665 67.8554 62.6481 67.1945 63.4094C64.8716 66.1558 62.1016 69.3045 61.7178 70.2126C61.2699 71.2901 61.3768 72.0722 62.2296 72.7062C62.8475 73.1711 63.9553 73.234 65.085 73.1711C67.1735 73.0229 68.6437 72.5158 69.3681 72.1991C70.4978 71.7976 71.819 71.1846 73.0548 70.276C75.3352 68.6067 76.72 66.2192 76.5925 63.0714C76.5285 61.3386 75.9531 59.6059 75.2498 57.9787C75.4632 57.6833 75.6547 57.3874 75.8681 57.0915C79.4693 51.8724 82.2612 46.1462 82.2612 46.1462C82.2612 46.1462 82.5171 47.8998 83.3905 50.8161C83.8168 52.2951 84.6907 53.901 85.4575 55.4643C82.0693 58.1903 79.9807 61.3594 79.2349 63.4302C77.8926 67.2759 78.9365 69.0082 80.9185 69.4097C81.8133 69.6 83.092 69.1772 84.0298 68.7757C85.2231 68.3956 86.6297 67.7408 87.9724 66.7684C90.2529 65.0995 92.4474 62.775 92.3195 59.6272C92.2555 58.1903 91.8721 56.7743 91.3392 55.4009C94.2161 54.2182 97.9242 53.563 102.655 54.1122C112.799 55.2953 114.802 61.5706 114.418 64.2123C114.035 66.8531 111.904 68.29 111.201 68.7336C110.497 69.1777 110.263 69.3254 110.327 69.6421C110.412 70.107 110.753 70.0862 111.35 70.0014C112.181 69.8537 116.678 67.8672 116.869 63.0075C117.189 56.7956 111.222 50.0132 100.673 50.0766ZM22.4214 76.2346C19.0542 79.8687 14.3662 81.2421 12.3417 80.0803C10.1681 78.8333 11.0204 73.4665 15.1545 69.6213C17.669 67.2759 20.9083 65.0991 23.0608 63.7683C23.5507 63.4724 24.2755 63.0501 25.1493 62.5217C25.2983 62.437 25.3838 62.3948 25.3838 62.3948L25.8952 62.0776C27.4078 67.5713 25.9591 72.4103 22.4214 76.2346ZM46.9285 59.7114C45.7563 62.543 43.3058 69.7903 41.8141 69.3888C40.5354 69.0508 39.7466 63.5571 41.5582 58.1269C42.4745 55.4009 44.4136 52.147 45.5433 50.8796C47.3759 48.8509 49.4005 48.1744 49.8904 48.9991C50.5087 50.0766 47.6529 57.9365 46.9285 59.7114ZM67.152 69.3041C66.6617 69.5578 66.1932 69.7269 65.9798 69.6C65.8308 69.5153 66.1932 69.1772 66.1932 69.1772C66.1932 69.1772 68.7292 66.473 69.7305 65.2473C70.3063 64.5291 70.9877 63.684 71.7125 62.7329V63.0075C71.7125 66.2405 68.5583 68.4169 67.1516 69.3041H67.152ZM82.7511 65.7756C82.3887 65.5219 82.4527 64.6768 83.6674 62.0355C84.1363 61.0001 85.2441 59.2678 87.1411 57.5985C87.3541 58.2746 87.5035 58.9298 87.4821 59.5424C87.4606 63.6205 84.5202 65.1417 82.7511 65.7756Z" fill="#CD6799"/>
</g>
<defs>
<clipPath id="clip0_2_5689">
<rect width="117" height="87" fill="white"/>
</clipPath>
</defs>
</g>
<g id="react-icon">
<g clip-path="url(#clip0_2_5687)">
<path d="M92.9055 32.7027C91.703 32.2887 90.4903 31.9051 89.2686 31.5523C89.4738 30.7106 89.6627 29.8792 89.8304 29.0623C92.5837 15.6483 90.7838 4.84178 84.6359 1.28375C78.7415 -2.12722 69.1015 1.42949 59.3658 9.93342C58.4063 10.773 57.4681 11.6368 56.552 12.524C55.9388 11.934 55.3148 11.3556 54.6802 10.7888C44.4766 1.69616 34.2492 -2.13608 28.108 1.43215C22.2188 4.85374 20.4749 15.0127 22.9537 27.7254C23.2003 28.9844 23.4787 30.237 23.7887 31.4819C22.341 31.8947 20.9441 32.3342 19.6072 32.8019C7.64431 36.9881 0.00463867 43.5483 0.00463867 50.3529C0.00463867 57.3808 8.20617 64.43 20.666 68.7043C21.6762 69.0495 22.6947 69.3692 23.7208 69.6634C23.3875 71.0042 23.0917 72.354 22.8336 73.7114C20.4705 86.2035 22.3159 96.1223 28.1892 99.5222C34.2554 103.033 44.4369 99.4247 54.3505 90.7268C55.1544 90.0196 55.9406 89.2925 56.7083 88.546C57.7003 89.5066 58.7188 90.4393 59.7626 91.343C69.3659 99.6365 78.85 102.985 84.7176 99.5762C90.7781 96.055 92.7479 85.3995 90.1906 72.4356C89.9891 71.42 89.7632 70.4094 89.5131 69.4047C90.2281 69.1921 90.9299 68.9732 91.614 68.7455C104.567 64.4384 112.995 57.4747 112.995 50.3529C112.995 43.5234 105.109 36.919 92.9055 32.7027ZM90.0961 64.1474C89.4782 64.3525 88.8444 64.5505 88.1982 64.7432C86.7682 60.1995 84.8385 55.3684 82.4768 50.3764C84.7304 45.5036 86.5859 40.734 87.9758 36.22C89.1317 36.5558 90.2533 36.9097 91.3346 37.2832C101.791 40.8961 108.168 46.2372 108.168 50.3529C108.168 54.7367 101.28 60.4277 90.0961 64.1474ZM85.4556 73.3765C86.5864 79.1087 86.7475 84.2916 85.9985 88.3435C85.3258 91.9844 83.9726 94.4115 82.2989 95.3839C78.7384 97.4526 71.1234 94.7637 62.9109 87.6706C61.94 86.8305 60.9926 85.9634 60.0698 85.0703C63.2538 81.5756 66.4356 77.5131 69.5411 73.0008C75.0035 72.5144 80.164 71.7188 84.8438 70.6331C85.0693 71.5426 85.2732 72.4573 85.4556 73.3765ZM38.5256 95.0264C35.0467 96.2592 32.2758 96.2946 30.6008 95.3254C27.0368 93.2624 25.5551 85.298 27.5761 74.6151C27.8164 73.3527 28.0914 72.0972 28.401 70.8502C33.0292 71.8779 38.1522 72.6168 43.6274 73.0624C46.7541 77.4776 50.0277 81.5358 53.327 85.0894C52.6258 85.7703 51.9081 86.4338 51.1744 87.0793C46.7903 90.9252 42.3973 93.654 38.5256 95.0264ZM22.2276 64.1204C16.718 62.2302 12.1679 59.7738 9.04919 57.0933C6.24649 54.6848 4.8319 52.2932 4.8319 50.3529C4.8319 46.2234 10.9656 40.9564 21.1961 37.3766C22.4377 36.9425 23.7371 36.5327 25.0855 36.1482C26.4996 40.7641 28.3543 45.5904 30.5924 50.4707C28.3251 55.4233 26.444 60.3267 25.0162 64.997C24.0796 64.7278 23.1498 64.4355 22.2276 64.1204ZM27.6909 26.7947C25.5674 15.9031 26.9776 7.68706 30.5267 5.62497C34.3066 3.42867 42.6652 6.56011 51.4754 14.4115C52.0499 14.9247 52.6151 15.4482 53.1707 15.9819C49.8878 19.52 46.6442 23.548 43.5453 27.9371C38.2312 28.4315 33.1444 29.2253 28.4677 30.2889C28.1795 29.131 27.9205 27.9661 27.6909 26.7951V26.7947ZM76.43 38.8739C75.3254 36.9589 74.1797 35.0679 72.9939 33.2024C76.599 33.66 80.0532 34.2673 83.2968 35.0098C82.3232 38.1425 81.1094 41.4175 79.6807 44.7753C78.6364 42.7867 77.5526 40.8191 76.43 38.8739ZM56.5542 19.4443C58.7805 21.8652 61.0103 24.5678 63.2035 27.5003C58.7545 27.2894 54.298 27.2886 49.849 27.4977C52.0443 24.5922 54.2931 21.8931 56.5542 19.4443ZM36.5509 38.9071C35.4424 40.8367 34.3788 42.792 33.3612 44.7713C31.9558 41.4255 30.7531 38.1355 29.7711 34.9584C32.9948 34.2346 36.4326 33.6427 40.0148 33.1935C38.8158 35.0704 37.6608 36.9754 36.5509 38.9067V38.9071ZM40.1176 67.8569C36.4168 67.4423 32.9273 66.881 29.7044 66.1767C30.7019 62.9429 31.9311 59.5829 33.3669 56.1653C34.3886 58.1461 35.4566 60.1026 36.5699 62.033C37.7148 64.0176 38.9003 65.9614 40.1176 67.8569ZM56.6875 81.6027C54.3995 79.1255 52.1176 76.3848 49.8891 73.4372C52.0527 73.5222 54.2582 73.5656 56.5 73.5656C58.803 73.5656 61.0796 73.5138 63.3204 73.4137C61.1202 76.4145 58.8988 79.1592 56.6875 81.6027ZM79.7262 55.9907C81.2365 59.446 82.5094 62.7883 83.5202 65.9667C80.2443 66.7171 76.7072 67.3214 72.9803 67.7701C74.1745 65.8699 75.331 63.9461 76.449 61.9998C77.5857 60.0214 78.6783 58.0179 79.7262 55.9907ZM72.2679 59.5794C70.5563 62.5634 68.7486 65.4909 66.8474 68.357C63.4037 68.6018 59.9523 68.7234 56.5 68.7216C52.9836 68.7216 49.5634 68.6118 46.2699 68.3974C44.3191 65.5378 42.4769 62.6053 40.747 59.6059H40.7475C39.0258 56.6225 37.4176 53.5745 35.9264 50.4685C37.4138 47.3618 39.0171 44.3124 40.7329 41.3267L40.7325 41.3271C42.4476 38.3407 44.2752 35.4206 46.2112 32.5734C49.5713 32.3182 53.0171 32.1853 56.4995 32.1853H56.5C59.9983 32.1853 63.4484 32.3195 66.8077 32.5765C68.7242 35.4195 70.5401 38.3295 72.252 41.301C73.9735 44.2801 75.598 47.3147 77.123 50.3999C75.6137 53.5166 73.9943 56.5783 72.2679 59.5794ZM82.2252 5.48056C86.0086 7.67067 87.4801 16.5024 85.1029 28.0842C84.9511 28.8231 84.7807 29.5757 84.5953 30.339C79.9071 29.2528 74.8168 28.4452 69.4873 27.9433C66.3827 23.506 63.1655 19.4717 59.936 15.9792C60.7824 15.1604 61.6489 14.3628 62.5348 13.5871C70.8767 6.30141 78.673 3.42468 82.2252 5.48056ZM56.5 40.2263C62.0723 40.2263 66.5897 44.7603 66.5897 50.3529C66.5897 55.9456 62.0723 60.4795 56.5 60.4795C50.9277 60.4795 46.4102 55.9456 46.4102 50.3529C46.4102 44.7603 50.9277 40.2263 56.5 40.2263Z" fill="#00D8FF"/>
</g>
<defs>
<clipPath id="clip0_2_5687">
<rect width="113" height="101" fill="white"/>
</clipPath>
</defs>
</g>
<g id='git-icon'>
<g clip-path="url(#clip0_2_5685)">
<path d="M103.02 47.8219L57.1758 1.98038C54.5372 -0.6598 50.2552 -0.6598 47.6134 1.98038L38.0937 11.5001L50.1699 23.5763C52.9762 22.6281 56.1943 23.2642 58.4313 25.5012C60.6789 27.7525 61.3106 30.9981 60.3393 33.8134L71.9775 45.452C74.7932 44.482 78.0421 45.1095 80.291 47.3621C83.434 50.5039 83.434 55.596 80.291 58.7399C77.1471 61.8841 72.055 61.8841 68.9095 58.7399C66.5454 56.3733 65.9613 52.9013 67.1582 49.9888L56.3046 39.1352L56.3034 67.6973C57.0902 68.0863 57.8088 68.6002 58.4313 69.2189C61.5743 72.3607 61.5743 77.4532 58.4313 80.5995C55.2874 83.7422 50.1929 83.7422 47.0535 80.5995C43.9105 77.4532 43.9105 72.3611 47.0535 69.2193C47.8067 68.4658 48.7019 67.869 49.6871 67.4635V38.6352C48.7004 38.2324 47.8048 37.6353 47.0535 36.8793C44.6722 34.5013 44.0996 31.0071 45.3198 28.0831L33.4154 16.1775L1.98105 47.6099C-0.660352 50.2525 -0.660352 54.5349 1.98105 57.1755L47.8259 103.018C50.4652 105.658 54.7464 105.658 57.3891 103.018L103.019 57.3884C105.66 54.747 105.66 50.4621 103.019 47.8219" />
</g>
<defs>
<clipPath id="clip0_2_5685">
<rect width="105" height="105" fill="white"/>
</clipPath>
</defs>
</g>
<g id='linkedin'>
<g clip-path="url(#clip0_2_5677)">
<path d="M15.0001 0.600098C7.0471 0.600098 0.600098 7.0471 0.600098 15.0001C0.600098 22.9531 7.0471 29.4001 15.0001 29.4001C22.9531 29.4001 29.4001 22.9531 29.4001 15.0001C29.4001 7.0471 22.9531 0.600098 15.0001 0.600098ZM11.4751 20.9686H8.5591V11.5846H11.4751V20.9686ZM9.9991 10.4326C9.0781 10.4326 8.4826 9.7801 8.4826 8.9731C8.4826 8.1496 9.0961 7.5166 10.0366 7.5166C10.9771 7.5166 11.5531 8.1496 11.5711 8.9731C11.5711 9.7801 10.9771 10.4326 9.9991 10.4326ZM22.1251 20.9686H19.2091V15.7681C19.2091 14.5576 18.7861 13.7356 17.7316 13.7356C16.9261 13.7356 16.4476 14.2921 16.2361 14.8276C16.1581 15.0181 16.1386 15.2881 16.1386 15.5566V20.9671H13.2211V14.5771C13.2211 13.4056 13.1836 12.4261 13.1446 11.5831H15.6781L15.8116 12.8866H15.8701C16.2541 12.2746 17.1946 11.3716 18.7681 11.3716C20.6866 11.3716 22.1251 12.6571 22.1251 15.4201V20.9686Z" fill=""/>
</g>
<defs>
<clipPath id="clip0_2_5677">
<rect width="30" height="30" fill="white"/>
</clipPath>
</defs>
</g>
<g id="chain">
<path d="M11.2867 8.7133C10.6041 8.031 9.67846 7.64771 8.71334 7.64771C7.74821 7.64771 6.82259 8.031 6.14 8.7133L3.56584 11.2866C2.88324 11.9692 2.49976 12.895 2.49976 13.8604C2.49976 14.8257 2.88324 15.7515 3.56584 16.4341C4.24844 17.1167 5.17424 17.5002 6.13959 17.5002C7.10493 17.5002 8.03074 17.1167 8.71334 16.4341L10 15.1475" stroke="black" stroke-width="1.66667" stroke-linecap="round" stroke-linejoin="round"/>
<path d="M8.71338 11.2867C9.39597 11.969 10.3216 12.3523 11.2867 12.3523C12.2518 12.3523 13.1775 11.969 13.86 11.2867L16.4342 8.71334C17.1168 8.03074 17.5003 7.10493 17.5003 6.13959C17.5003 5.17424 17.1168 4.24844 16.4342 3.56584C15.7516 2.88324 14.8258 2.49976 13.8605 2.49976C12.8951 2.49976 11.9693 2.88324 11.2867 3.56584L10 4.8525" stroke="black" stroke-width="1.66667" stroke-linecap="round" stroke-linejoin="round"/>
</g>
<g id="css-icon">

  <path d="M22.1325 101.154L13.71 7.4375H106.29L97.8562 101.139L59.9437 111.562L22.1325 101.154Z" fill="#1572B6" />
  <path d="M60 103.597L90.6375 95.174L97.845 15.1019H60V103.597Z" fill="#33A9DC" />
  <path d="M60 49.054H75.3375L76.395 37.2842H60V25.7896H89.0625L88.785 28.8724L85.9387 60.5487H60V49.054Z" fill="white" />
  <path d="M60.0711 78.9045L60.0186 78.9193L47.1112 75.4609L46.2862 66.2942H34.6499L36.2737 84.3413L60.0149 90.8788L60.0711 90.864V78.9045Z" fill="#EBEBEB" />
  <path d="M74.3513 60.0615L72.9563 75.4534L60.03 78.9119V90.8714L83.79 84.3412L83.9663 82.4001L85.98 60.0615H74.3513Z" fill="white" />
  <path d="M60.0411 25.7896V37.2842H32.0436L31.8111 34.6997L31.2824 28.8724L31.0049 25.7896H60.0411ZM59.9999 49.054V60.5487H47.2536L47.0211 57.9642L46.4961 52.1369L46.2186 49.054H59.9999Z" fill="#EBEBEB" />

</g>
<g id="Redux">
  <path d="M72.6971 69.5627C76.5688 69.1619 79.5061 65.8242 79.3725 61.8184C79.2393 57.8131 75.9012 54.6086 71.8959 54.6086H71.6291C67.4897 54.7422 64.2856 58.2135 64.4193 62.3525C64.5529 64.3553 65.3537 66.091 66.5553 67.2926C62.016 76.2385 55.0734 82.7807 44.6594 88.2549C37.5832 91.9934 30.2402 93.3287 22.8971 92.3943C16.8889 91.593 12.216 88.923 9.27827 84.5164C5.00614 77.9742 4.60573 70.8975 8.21065 63.8213C10.7475 58.7475 14.7525 55.009 17.2893 53.1398C16.7553 51.4041 15.9541 48.4668 15.5537 46.3307C-3.80574 60.35 -1.80287 79.3094 4.07172 88.2549C8.47745 94.9311 17.4229 99.0701 27.3029 99.0701C29.9729 99.0701 32.643 98.8029 35.3135 98.1357C52.4033 94.7975 65.3541 84.65 72.6971 69.5627ZM96.1955 53.0066C86.0483 41.1234 71.0951 34.5811 54.0053 34.5811H51.8693C50.6676 32.1779 48.1307 30.5754 45.327 30.5754H45.0598C40.9213 30.709 37.7172 34.1803 37.8504 38.3197C37.984 42.325 41.3217 45.5295 45.327 45.5295H45.5938C48.5311 45.3959 51.068 43.5266 52.1361 40.9898H54.5393C64.6865 40.9898 74.2992 43.927 82.9779 49.6684C89.6533 54.0746 94.4598 59.816 97.1299 66.7586C99.3996 72.3664 99.266 77.8406 96.8627 82.5139C93.1246 89.5902 86.8496 93.4623 78.5717 93.4623C73.2311 93.4623 68.1578 91.8598 65.4873 90.6582C64.0188 91.9934 61.3484 94.1295 59.4791 95.4652C65.2205 98.1352 71.0951 99.6041 76.7025 99.6041C89.5197 99.6041 98.9992 92.5275 102.604 85.4512C106.476 77.707 106.209 64.3553 96.1955 53.0066ZM28.3709 71.832C28.5045 75.8377 31.8422 79.0418 35.8475 79.0418H36.1147C40.2537 78.9086 43.4578 75.4369 43.3242 71.2979C43.191 67.2922 39.8529 64.0881 35.8475 64.0881H35.5807C35.3135 64.0881 34.9127 64.0881 34.6463 64.2213C29.1721 55.1422 26.9025 45.2623 27.7037 34.5807C28.2373 26.5697 30.9078 19.6266 35.5807 13.8852C39.4525 8.94508 46.9291 6.5418 52.0029 6.40861C66.1549 6.14139 72.1627 23.7656 72.5635 30.8422C74.2992 31.2426 77.2365 32.1775 79.2393 32.8451C77.6369 11.2156 64.2856 0 51.4688 0C39.4524 0 28.3709 8.67869 23.9647 21.4963C17.8234 38.5865 21.8287 55.009 29.3053 67.9602C28.6381 68.8947 28.2373 70.3635 28.3709 71.8324V71.832Z" fill="#764ABC" />
</g>
<g id="TS">
<path class="st0" d="M0 200V0h400v400H0"/><path class="st1" d="M87.7 200.7V217h52v148h36.9V217h52v-16c0-9 0-16.3-.4-16.5 0-.3-31.7-.4-70.2-.4l-70 .3v16.4l-.3-.1zM321.4 184c10.2 2.4 18 7 25 14.3 3.7 4 9.2 11 9.6 12.8 0 .6-17.3 12.3-27.8 18.8-.4.3-2-1.4-3.6-4-5.2-7.4-10.5-10.6-18.8-11.2-12-.8-20 5.5-20 16 0 3.2.6 5 1.8 7.6 2.7 5.5 7.7 8.8 23.2 15.6 28.6 12.3 41 20.4 48.5 32 8.5 13 10.4 33.4 4.7 48.7-6.4 16.7-22 28-44.3 31.7-7 1.2-23 1-30.5-.3-16-3-31.3-11-40.7-21.3-3.7-4-10.8-14.7-10.4-15.4l3.8-2.4 15-8.7 11.3-6.6 2.6 3.5c3.3 5.2 10.7 12.2 15 14.6 13 6.7 30.4 5.8 39-2 3.7-3.4 5.3-7 5.3-12 0-4.6-.7-6.7-3-10.2-3.2-4.4-9.6-8-27.6-16-20.7-8.8-29.5-14.4-37.7-23-4.7-5.2-9-13.3-11-20-1.5-5.8-2-20-.6-25.7 4.3-20 19.4-34 41-38 7-1.4 23.5-.8 30.4 1l-.2.2z"/>
</g>
<g id="building"><path xmlns="http://www.w3.org/2000/svg" d="M2.5 1.5V10.5H5.5V8.75H6.5V10.5H9.5V1.5H2.5ZM3.5 2.5H4.5V3.5H3.5V2.5ZM5.5 2.5H6.5V3.5H5.5V2.5ZM7.5 2.5H8.5V3.5H7.5V2.5ZM3.5 4.5H4.5V5.5H3.5V4.5ZM5.5 4.5H6.5V5.5H5.5V4.5ZM7.5 4.5H8.5V5.5H7.5V4.5ZM3.5 6.5H4.5V7.5H3.5V6.5ZM5.5 6.5H6.5V7.5H5.5V6.5ZM7.5 6.5H8.5V7.5H7.5V6.5ZM3.5 8.5H4.5V9.5H3.5V8.5ZM7.5 8.5H8.5V9.5H7.5V8.5Z" fill="#A7A7A7"/>
</g>
<g id="date">
<path d="M5.33341 6.5C5.1566 6.5 4.98703 6.44732 4.86201 6.35355C4.73699 6.25979 4.66675 6.13261 4.66675 6C4.66675 5.86739 4.73699 5.74021 4.86201 5.64645C4.98703 5.55268 5.1566 5.5 5.33341 5.5C5.51023 5.5 5.67979 5.55268 5.80482 5.64645C5.92984 5.74021 6.00008 5.86739 6.00008 6C6.00008 6.13261 5.92984 6.25979 5.80482 6.35355C5.67979 6.44732 5.51023 6.5 5.33341 6.5ZM5.33341 8.5C5.1566 8.5 4.98703 8.44732 4.86201 8.35355C4.73699 8.25979 4.66675 8.13261 4.66675 8C4.66675 7.86739 4.73699 7.74021 4.86201 7.64645C4.98703 7.55268 5.1566 7.5 5.33341 7.5C5.51023 7.5 5.67979 7.55268 5.80482 7.64645C5.92984 7.74021 6.00008 7.86739 6.00008 8C6.00008 8.13261 5.92984 8.25979 5.80482 8.35355C5.67979 8.44732 5.51023 8.5 5.33341 8.5ZM7.33341 8C7.33341 8.13261 7.40365 8.25979 7.52868 8.35355C7.6537 8.44732 7.82327 8.5 8.00008 8.5C8.17689 8.5 8.34646 8.44732 8.47149 8.35355C8.59651 8.25979 8.66675 8.13261 8.66675 8C8.66675 7.86739 8.59651 7.74021 8.47149 7.64645C8.34646 7.55268 8.17689 7.5 8.00008 7.5C7.82327 7.5 7.6537 7.55268 7.52868 7.64645C7.40365 7.74021 7.33341 7.86739 7.33341 8ZM10.6667 8.5C10.4899 8.5 10.3204 8.44732 10.1953 8.35355C10.0703 8.25979 10.0001 8.13261 10.0001 8C10.0001 7.86739 10.0703 7.74021 10.1953 7.64645C10.3204 7.55268 10.4899 7.5 10.6667 7.5C10.8436 7.5 11.0131 7.55268 11.1382 7.64645C11.2632 7.74021 11.3334 7.86739 11.3334 8C11.3334 8.13261 11.2632 8.25979 11.1382 8.35355C11.0131 8.44732 10.8436 8.5 10.6667 8.5ZM7.33341 6C7.33341 6.13261 7.40365 6.25979 7.52868 6.35355C7.6537 6.44732 7.82327 6.5 8.00008 6.5C8.17689 6.5 8.34646 6.44732 8.47149 6.35355C8.59651 6.25979 8.66675 6.13261 8.66675 6C8.66675 5.86739 8.59651 5.74021 8.47149 5.64645C8.34646 5.55268 8.17689 5.5 8.00008 5.5C7.82327 5.5 7.6537 5.55268 7.52868 5.64645C7.40365 5.74021 7.33341 5.86739 7.33341 6ZM10.6667 6.5C10.4899 6.5 10.3204 6.44732 10.1953 6.35355C10.0703 6.25979 10.0001 6.13261 10.0001 6C10.0001 5.86739 10.0703 5.74021 10.1953 5.64645C10.3204 5.55268 10.4899 5.5 10.6667 5.5C10.8436 5.5 11.0131 5.55268 11.1382 5.64645C11.2632 5.74021 11.3334 5.86739 11.3334 6C11.3334 6.13261 11.2632 6.25979 11.1382 6.35355C11.0131 6.44732 10.8436 6.5 10.6667 6.5ZM5.33341 3.5C5.1566 3.5 4.98703 3.55268 4.86201 3.64645C4.73699 3.74021 4.66675 3.86739 4.66675 4C4.66675 4.13261 4.73699 4.25979 4.86201 4.35355C4.98703 4.44732 5.1566 4.5 5.33341 4.5H10.6667C10.8436 4.5 11.0131 4.44732 11.1382 4.35355C11.2632 4.25979 11.3334 4.13261 11.3334 4C11.3334 3.86739 11.2632 3.74021 11.1382 3.64645C11.0131 3.55268 10.8436 3.5 10.6667 3.5H5.33341Z" fill="#A7A7A7"/>
<path fill-rule="evenodd" clip-rule="evenodd" d="M4 1.5C3.46957 1.5 2.96086 1.65804 2.58579 1.93934C2.21071 2.22064 2 2.60218 2 3V9C2 9.39782 2.21071 9.77936 2.58579 10.0607C2.96086 10.342 3.46957 10.5 4 10.5H12C12.5304 10.5 13.0391 10.342 13.4142 10.0607C13.7893 9.77936 14 9.39782 14 9V3C14 2.60218 13.7893 2.22064 13.4142 1.93934C13.0391 1.65804 12.5304 1.5 12 1.5H4ZM12 2.5H4C3.82319 2.5 3.65362 2.55268 3.5286 2.64645C3.40357 2.74021 3.33333 2.86739 3.33333 3V9C3.33333 9.13261 3.40357 9.25979 3.5286 9.35355C3.65362 9.44732 3.82319 9.5 4 9.5H12C12.1768 9.5 12.3464 9.44732 12.4714 9.35355C12.5964 9.25979 12.6667 9.13261 12.6667 9V3C12.6667 2.86739 12.5964 2.74021 12.4714 2.64645C12.3464 2.55268 12.1768 2.5 12 2.5Z" fill="#A7A7A7"/>
</g>
<g id="lacation">
<path d="M6 6.75C5.62916 6.75 5.26665 6.64003 4.95831 6.43401C4.64996 6.22798 4.40964 5.93514 4.26773 5.59253C4.12581 5.24992 4.08868 4.87292 4.16103 4.50921C4.23338 4.14549 4.41195 3.8114 4.67418 3.54918C4.9364 3.28695 5.27049 3.10838 5.63421 3.03603C5.99792 2.96368 6.37492 3.00081 6.71753 3.14273C7.06014 3.28464 7.35298 3.52496 7.55901 3.83331C7.76503 4.14165 7.875 4.50416 7.875 4.875C7.87441 5.3721 7.67667 5.84867 7.32517 6.20017C6.97367 6.55167 6.4971 6.74941 6 6.75ZM6 3.75C5.7775 3.75 5.55999 3.81598 5.37498 3.9396C5.18998 4.06321 5.04579 4.23892 4.96064 4.44448C4.87549 4.65005 4.85321 4.87625 4.89662 5.09448C4.94003 5.31271 5.04717 5.51316 5.20451 5.6705C5.36184 5.82783 5.5623 5.93498 5.78052 5.97838C5.99875 6.02179 6.22495 5.99951 6.43052 5.91437C6.63609 5.82922 6.81179 5.68502 6.9354 5.50002C7.05902 5.31501 7.125 5.09751 7.125 4.875C7.1247 4.57672 7.00608 4.29075 6.79517 4.07983C6.58425 3.86892 6.29828 3.7503 6 3.75Z" fill="#A7A7A7"/>
<path d="M6 11.25L2.8365 7.51912C2.79255 7.4631 2.74905 7.40673 2.706 7.35C2.16562 6.63817 1.87369 5.76871 1.875 4.875C1.875 3.78098 2.3096 2.73177 3.08319 1.95818C3.85678 1.1846 4.90599 0.75 6 0.75C7.09402 0.75 8.14323 1.1846 8.91682 1.95818C9.69041 2.73177 10.125 3.78098 10.125 4.875C10.1263 5.7683 9.83452 6.63737 9.29438 7.34888L9.294 7.35C9.294 7.35 9.1815 7.49775 9.16463 7.51763L6 11.25ZM3.3045 6.89813C3.30525 6.89813 3.39225 7.01362 3.41213 7.03837L6 10.0905L8.59125 7.03425C8.60775 7.01362 8.6955 6.89738 8.69588 6.897C9.13731 6.31542 9.37587 5.60514 9.375 4.875C9.375 3.97989 9.01942 3.12145 8.38649 2.48851C7.75355 1.85558 6.89511 1.5 6 1.5C5.1049 1.5 4.24645 1.85558 3.61352 2.48851C2.98058 3.12145 2.625 3.97989 2.625 4.875C2.62422 5.60559 2.86305 6.31628 3.30488 6.89813H3.3045Z" fill="#A7A7A7"/>
</g>
<g id="styled">
<path d="M18.05,29.6c.042-.095.148-.161.225-.241,1.175-1.232,2.36-2.453,3.519-3.7A3.2,3.2,0,0,0,22.808,23a5.925,5.925,0,0,0-.143-.624c-.316.3-.61.573-.906.848-.46.428-.918.858-1.382,1.281a1.931,1.931,0,0,1-2.148.419,1.973,1.973,0,0,1-1.29-1.75,1.04,1.04,0,0,0-.043-.146c-.353.3-.691.576-1.026.86l-6.963,5.9c-.048.041-.1.092-.145.132h9.283l-.014-.009C17.981,29.876,18.007,29.692,18.05,29.6Z" style="fill:#ffcebf"/><path d="M8.337,29.6a1.239,1.239,0,0,1,.295-.276l9.636-8.175q.986-.837,1.963-1.683a.523.523,0,0,0,.182-.224,5.364,5.364,0,0,0,.065-2.069c-.1.07-.154.1-.2.149-.789.706-1.574,1.418-2.367,2.12a1.762,1.762,0,0,1-2.048.329,1.889,1.889,0,0,1-1.08-1.807c0-.085,0-.169,0-.324-.145.106-.251.177-.35.257Q8.648,22.529,2.865,27.154c-.174.139-.382.449-.61.148s.119-.425.294-.565q6.165-4.947,12.336-9.885c.67-.537.714-.762.278-1.615l-.26.244c-.713.663-1.434,1.317-2.136,1.991a2.121,2.121,0,0,1-3.585-1.337c-.133.1-.248.173-.357.258l-6.1,4.728a1.485,1.485,0,0,1-.356.258.446.446,0,0,1-.3-.015v8.561H8.325A.365.365,0,0,1,8.337,29.6Z" style="fill:#ffcebf"/><path d="M25.237,2.423c-.17.557-.335,1.115-.484,1.678a1.688,1.688,0,0,0,.9,2.09,7.122,7.122,0,0,0,3.818.8V2.518a.73.73,0,0,1,.016-.294.666.666,0,0,1,.105-.149H25.233C25.3,2.153,25.277,2.29,25.237,2.423Z" style="fill:#ff6196"/><path d="M16.482,12.032a2.422,2.422,0,0,1-.5,1.376A22.671,22.671,0,0,1,12.256,17.2a1.442,1.442,0,0,1-1.684.2,1.393,1.393,0,0,1-.843-1.368,1.624,1.624,0,0,1,.417-.947,35.848,35.848,0,0,1,5.019-3.993.71.71,0,0,1,.829-.034A1.041,1.041,0,0,1,16.482,12.032Z" style="fill:#ff87af"/><path d="M15.284,18.093a1.437,1.437,0,0,1,.448-1.2,38.336,38.336,0,0,1,4.87-3.813c.052-.033.1-.066.157-.1a.837.837,0,0,1,1.025.035.861.861,0,0,1,.242.979,4.39,4.39,0,0,1-1.168,1.908c-1.105,1.1-2.252,2.164-3.4,3.22a1.124,1.124,0,0,1-1.364.192A1.512,1.512,0,0,1,15.284,18.093Z" style="fill:#ff87af"/><path d="M22.5,18.754c-.28.3-.568.586-.837.893a1.89,1.89,0,0,0-.2.38c.148.044.321.16.441.119.611-.205,1.207-.451,1.878-.71-.146.336-.256.646-.411.93A12.189,12.189,0,0,1,21,23.238q-.532.513-1.105.981a1.484,1.484,0,0,1-2.415-.92,1.1,1.1,0,0,1,.238-.813,22.187,22.187,0,0,1,4.623-3.823.193.193,0,0,1,.065-.013Z" style="fill:#ff87af"/><path d="M24.794,14.771l1.711-7.6,1.2.281-.619,1.881c-.578,1.75-1.163,3.5-1.727,5.252C25.249,14.909,25.105,14.969,24.794,14.771Z" style="fill:#ff6196"/><path d="M22.862,19.241c.181-.691.361-1.33.513-1.976a4.468,4.468,0,0,1,.826-1.721c.243-.319.516-.192.795-.123.258.063.323.252.334.5a2.845,2.845,0,0,1-.588,1.907A4.8,4.8,0,0,1,22.862,19.241Z" style="fill:#ff6196"/><path d="M29.993,2.894a3.623,3.623,0,0,0-.017-.668.291.291,0,0,0-.116-.151A.381.381,0,0,0,29.708,2c-.032-.006-.077.027-.12.074a.666.666,0,0,0-.105.149.73.73,0,0,0-.016.294V6.989a7.122,7.122,0,0,1-3.818-.8,1.688,1.688,0,0,1-.9-2.09c.149-.563.314-1.121.484-1.678.04-.133.063-.27,0-.348a.2.2,0,0,0-.135-.064.3.3,0,0,0-.182.064.434.434,0,0,0-.171.19c-.2.6-.376,1.206-.529,1.818a2.148,2.148,0,0,0-.046.737,2.339,2.339,0,0,0,1.542,2c.189.079.3.157.247.406-.073.316-.144.632-.216.949q-.735,3.222-1.462,6.447a.483.483,0,0,1-.121.257,3.228,3.228,0,0,0-.791.92,4.8,4.8,0,0,0-.53,1.5.981.981,0,0,1-.558.785c-.417.211-.8.484-1.263.768A12.639,12.639,0,0,0,21,17.179a1.062,1.062,0,0,1,.284-.96,4.75,4.75,0,0,0,1.258-2.194,1.294,1.294,0,0,0-1.208-1.7,1.7,1.7,0,0,0-.929.264c-.957.646-1.888,1.332-2.812,2.026-.547.412-1.062.868-1.592,1.3a.418.418,0,0,1-.059-.081.842.842,0,0,0-.059-.214c-.443-.684-.136-1.181.345-1.692A2.793,2.793,0,0,0,17,11.977a1.568,1.568,0,0,0-.327-1.026,1.459,1.459,0,0,0-.438-.363,1.337,1.337,0,0,0-1.517.162l-.279.2c-.637.456-1.282.9-1.895,1.388-.895.712-1.769,1.454-2.626,2.214-.4.353-.692.835-1.107,1.163-2.164,1.709-4.351,3.387-6.53,5.076a1.022,1.022,0,0,0-.205.161.164.164,0,0,0-.016.029c-.046.107-.085.284-.031.349a.141.141,0,0,0,.047.033.446.446,0,0,0,.3.015,1.485,1.485,0,0,0,.356-.258l6.1-4.728c.109-.085.224-.162.357-.258a2.121,2.121,0,0,0,3.585,1.337c.7-.674,1.423-1.328,2.136-1.991l.26-.244c.436.853.392,1.078-.278,1.615Q8.716,21.793,2.549,26.737c-.175.14-.521.267-.294.565s.436-.009.61-.148Q8.651,22.533,14.429,17.9c.1-.08.205-.151.35-.257,0,.155,0,.239,0,.324a1.889,1.889,0,0,0,1.08,1.807,1.762,1.762,0,0,0,2.048-.329c.793-.7,1.578-1.414,2.367-2.12.05-.045.108-.079.2-.149a5.364,5.364,0,0,1-.065,2.069.523.523,0,0,1-.182.224q-.978.845-1.963,1.683L8.632,29.328a1.239,1.239,0,0,0-.295.276.365.365,0,0,0-.012.321v0a.376.376,0,0,0,.32.063.294.294,0,0,0,.116-.065c.05-.04.1-.091.145-.132l6.963-5.9c.335-.284.673-.564,1.026-.86a1.04,1.04,0,0,1,.043.146,1.973,1.973,0,0,0,1.29,1.75,1.931,1.931,0,0,0,2.148-.419c.464-.423.922-.853,1.382-1.281.3-.275.59-.551.906-.848a5.925,5.925,0,0,1,.143.624,3.2,3.2,0,0,1-1.014,2.649c-1.159,1.248-2.344,2.469-3.519,3.7-.077.08-.183.146-.225.241s-.069.281-.019.321l.014.009a.573.573,0,0,0,.338.051.136.136,0,0,0,.081-.051c.028-.029.055-.065.082-.092.952-.984,1.909-1.963,2.854-2.954a13.982,13.982,0,0,0,1.074-1.223,3.411,3.411,0,0,0,.61-3.616.516.516,0,0,1,.074-.386c.065-.112.137-.221.211-.329a4.632,4.632,0,0,0,.587-1,7.547,7.547,0,0,1,1.339-2.4,2.792,2.792,0,0,0,.5-2.469.988.988,0,0,1,0-.489c.506-1.567,1.027-3.129,1.543-4.692q.347-1.05.69-2.094l.213-.647c.454,0,.882-.009,1.308,0,.354.01.462-.156.458-.5C29.985,5.652,29.993,4.273,29.993,2.894ZM12.256,17.2a1.442,1.442,0,0,1-1.684.2,1.393,1.393,0,0,1-.843-1.368,1.624,1.624,0,0,1,.417-.947,35.848,35.848,0,0,1,5.019-3.993.852.852,0,0,1,.326-.14.656.656,0,0,1,.238,0,.763.763,0,0,1,.265.106,1.041,1.041,0,0,1,.488.975,2.422,2.422,0,0,1-.5,1.376A22.671,22.671,0,0,1,12.256,17.2Zm5.2,1.929a1.124,1.124,0,0,1-1.364.192,1.512,1.512,0,0,1-.81-1.224,1.437,1.437,0,0,1,.448-1.2,38.336,38.336,0,0,1,4.87-3.813c.052-.033.1-.066.157-.1a.837.837,0,0,1,1.025.035.861.861,0,0,1,.242.979,4.39,4.39,0,0,1-1.168,1.908C19.753,17.008,18.606,18.069,17.458,19.125Zm5.911,1.241A12.189,12.189,0,0,1,21,23.238q-.532.513-1.105.981a1.484,1.484,0,0,1-2.415-.92,1.1,1.1,0,0,1,.238-.813,22.187,22.187,0,0,1,4.623-3.823.193.193,0,0,1,.065-.013l.1.1c-.28.3-.568.586-.837.893a1.89,1.89,0,0,0-.2.38c.148.044.321.16.441.119.483-.162.958-.35,1.467-.55l.411-.16C23.634,19.772,23.524,20.082,23.369,20.366Zm1.373-2.535a4.363,4.363,0,0,1-1.373,1.152q-.247.138-.507.258c.178-.681.356-1.312.507-1.95l.006-.026a4.468,4.468,0,0,1,.826-1.721c.243-.319.516-.192.795-.123.258.063.323.252.334.5A2.845,2.845,0,0,1,24.742,17.831Zm2.34-8.5c-.578,1.75-1.163,3.5-1.727,5.252-.106.329-.25.389-.561.191l1.483-6.593.228-1.012,1.2.281c-.082.247-.161.49-.241.731Z"/></g>
<g id="gotoTop">
<path d="M6.80722 4.2806V15H9.19278V4.2806L14.3134 9.08118L16 7.5L8 0L0 7.5L1.6866 9.08118L6.80722 4.2806Z" fill=""/>
</g>

</svg>